<svg width="20" height="20" viewBox="0 0 20 20" fill="none" xmlns="http://www.w3.org/2000/svg">
<mask id="mask0_134_25283" style="mask-type:alpha" maskUnits="userSpaceOnUse" x="0" y="0" width="20" height="20">
<rect width="20" height="20" fill="#D9D9D9"/>
</mask>
<g mask="url(#mask0_134_25283)">
<path d="M6.34609 16.6667C5.97317 16.6667 5.65553 16.5356 5.39317 16.2733C5.13095 16.011 4.99984 15.6933 4.99984 15.3204V5.00001H4.1665V4.16668H7.49984V3.52563H12.4998V4.16668H15.8332V5.00001H14.9998V15.3204C14.9998 15.704 14.8714 16.0243 14.6144 16.2813C14.3575 16.5382 14.0372 16.6667 13.6536 16.6667H6.34609ZM14.1665 5.00001H5.83317V15.3204C5.83317 15.47 5.88123 15.5929 5.97734 15.6892C6.07359 15.7853 6.1965 15.8333 6.34609 15.8333H13.6536C13.7819 15.8333 13.8995 15.7799 14.0063 15.6731C14.1131 15.5663 14.1665 15.4488 14.1665 15.3204V5.00001ZM8.17296 14.1667H9.0063V6.66668H8.17296V14.1667ZM10.9934 14.1667H11.8267V6.66668H10.9934V14.1667Z" fill="#000080"/>
</g>
</svg>
